<?xml version="1.0" encoding="UTF-8" standalone="no"?>
<!DOCTYPE svg PUBLIC "-//W3C//DTD SVG 1.1//EN"
 "http://www.w3.org/Graphics/SVG/1.1/DTD/svg11.dtd">
<!-- Generated by graphviz version 2.38.0 (20140413.2041)
 -->
<!-- Title: controllers_diagram Pages: 1 -->
<svg width="1174pt" height="1129pt"
 viewBox="0.00 0.00 1174.47 1128.84" xmlns="http://www.w3.org/2000/svg" xmlns:xlink="http://www.w3.org/1999/xlink">
<g id="graph0" class="graph" transform="scale(1 1) rotate(0) translate(484.253 565.086)">
<title>controllers_diagram</title>
<polygon fill="white" stroke="none" points="-484.253,563.756 -484.253,-565.086 690.212,-565.086 690.212,563.756 -484.253,563.756"/>
<!-- _diagram_info -->
<g id="node1" class="node"><title>_diagram_info</title>
<text text-anchor="start" x="487.788" y="100.9" font-family="Times,serif" font-size="13.00">Controllers diagram</text>
<text text-anchor="start" x="487.788" y="113.9" font-family="Times,serif" font-size="13.00">Date: Jan 06 2015 &#45; 22:11</text>
<text text-anchor="start" x="487.788" y="126.9" font-family="Times,serif" font-size="13.00">Migration version: 20141112172423</text>
<text text-anchor="start" x="487.788" y="139.9" font-family="Times,serif" font-size="13.00">Generated by RailRoady 1.3.0</text>
<text text-anchor="start" x="487.788" y="152.9" font-family="Times,serif" font-size="13.00">http://railroady.prestonlee.com</text>
</g>
<!-- ApplicationController -->
<g id="node2" class="node"><title>ApplicationController</title>
<path fill="none" stroke="black" d="M-468.253,32.7782C-468.253,32.7782 -352.612,32.7782 -352.612,32.7782 -346.612,32.7782 -340.612,26.7782 -340.612,20.7782 -340.612,20.7782 -340.612,-47.2218 -340.612,-47.2218 -340.612,-53.2218 -346.612,-59.2218 -352.612,-59.2218 -352.612,-59.2218 -468.253,-59.2218 -468.253,-59.2218 -474.253,-59.2218 -480.253,-53.2218 -480.253,-47.2218 -480.253,-47.2218 -480.253,20.7782 -480.253,20.7782 -480.253,26.7782 -474.253,32.7782 -468.253,32.7782"/>
<text text-anchor="middle" x="-410.433" y="-44.0218" font-family="Times,serif" font-size="14.00">ApplicationController</text>
<polyline fill="none" stroke="black" points="-480.253,-37.2218 -340.612,-37.2218 "/>
<polyline fill="none" stroke="black" points="-480.253,-13.2218 -340.612,-13.2218 "/>
<polyline fill="none" stroke="black" points="-480.253,10.7782 -340.612,10.7782 "/>
<text text-anchor="start" x="-472.253" y="25.9782" font-family="Times,serif" font-size="14.00">_layout</text>
</g>
<!-- OfficeController -->
<g id="node8" class="node"><title>OfficeController</title>
<path fill="none" stroke="black" d="M-129.968,163.468C-129.968,163.468 -45.4372,163.468 -45.4372,163.468 -39.4372,163.468 -33.4372,157.468 -33.4372,151.468 -33.4372,151.468 -33.4372,85.4679 -33.4372,85.4679 -33.4372,79.4679 -39.4372,73.4679 -45.4372,73.4679 -45.4372,73.4679 -129.968,73.4679 -129.968,73.4679 -135.968,73.4679 -141.968,79.4679 -141.968,85.4679 -141.968,85.4679 -141.968,151.468 -141.968,151.468 -141.968,157.468 -135.968,163.468 -129.968,163.468"/>
<text text-anchor="middle" x="-87.7028" y="88.6679" font-family="Times,serif" font-size="14.00">OfficeController</text>
<polyline fill="none" stroke="black" points="-141.968,95.4679 -33.4372,95.4679 "/>
<text text-anchor="start" x="-133.968" y="110.668" font-family="Times,serif" font-size="14.00">error</text>
<polyline fill="none" stroke="black" points="-141.968,117.468 -33.4372,117.468 "/>
<polyline fill="none" stroke="black" points="-141.968,141.468 -33.4372,141.468 "/>
<text text-anchor="start" x="-133.968" y="156.668" font-family="Times,serif" font-size="14.00">_layout</text>
</g>
<!-- ApplicationController&#45;&gt;OfficeController -->
<g id="edge6" class="edge"><title>ApplicationController&#45;&gt;OfficeController</title>
<path fill="none" stroke="black" d="M-340.405,15.3529C-280.896,39.6354 -196.676,74.0014 -142.122,96.2623"/>
</g>
<!-- AdminController -->
<g id="node3" class="node"><title>AdminController</title>
<path fill="none" stroke="black" d="M54.0353,-53.2918C54.0353,-53.2918 142.47,-53.2918 142.47,-53.2918 148.47,-53.2918 154.47,-59.2918 154.47,-65.2918 154.47,-65.2918 154.47,-159.292 154.47,-159.292 154.47,-165.292 148.47,-171.292 142.47,-171.292 142.47,-171.292 54.0353,-171.292 54.0353,-171.292 48.0353,-171.292 42.0353,-165.292 42.0353,-159.292 42.0353,-159.292 42.0353,-65.2918 42.0353,-65.2918 42.0353,-59.2918 48.0353,-53.2918 54.0353,-53.2918"/>
<text text-anchor="middle" x="98.2526" y="-156.092" font-family="Times,serif" font-size="14.00">AdminController</text>
<polyline fill="none" stroke="black" points="42.0353,-149.292 154.47,-149.292 "/>
<text text-anchor="start" x="50.0353" y="-134.092" font-family="Times,serif" font-size="14.00">clean_search</text>
<text text-anchor="start" x="50.0353" y="-120.092" font-family="Times,serif" font-size="14.00">require_admin</text>
<text text-anchor="start" x="50.0353" y="-106.092" font-family="Times,serif" font-size="14.00">sign_in</text>
<polyline fill="none" stroke="black" points="42.0353,-99.2918 154.47,-99.2918 "/>
<polyline fill="none" stroke="black" points="42.0353,-75.2918 154.47,-75.2918 "/>
<text text-anchor="start" x="50.0353" y="-60.0918" font-family="Times,serif" font-size="14.00">_layout</text>
</g>
<!-- BasketsController -->
<g id="node4" class="node"><title>BasketsController</title>
<path fill="none" stroke="black" d="M303.815,559.256C303.815,559.256 402.332,559.256 402.332,559.256 408.332,559.256 414.332,553.256 414.332,547.256 414.332,547.256 414.332,271.256 414.332,271.256 414.332,265.256 408.332,259.256 402.332,259.256 402.332,259.256 303.815,259.256 303.815,259.256 297.815,259.256 291.815,265.256 291.815,271.256 291.815,271.256 291.815,547.256 291.815,547.256 291.815,553.256 297.815,559.256 303.815,559.256"/>
<text text-anchor="middle" x="353.074" y="274.456" font-family="Times,serif" font-size="14.00">BasketsController</text>
<polyline fill="none" stroke="black" points="291.815,281.256 414.332,281.256 "/>
<text text-anchor="start" x="299.815" y="296.456" font-family="Times,serif" font-size="14.00">checkout</text>
<text text-anchor="start" x="299.815" y="310.456" font-family="Times,serif" font-size="14.00">create</text>
<text text-anchor="start" x="299.815" y="324.456" font-family="Times,serif" font-size="14.00">destroy</text>
<text text-anchor="start" x="299.815" y="338.456" font-family="Times,serif" font-size="14.00">discount</text>
<text text-anchor="start" x="299.815" y="352.456" font-family="Times,serif" font-size="14.00">ean</text>
<text text-anchor="start" x="299.815" y="366.456" font-family="Times,serif" font-size="14.00">edit</text>
<text text-anchor="start" x="299.815" y="380.456" font-family="Times,serif" font-size="14.00">index</text>
<text text-anchor="start" x="299.815" y="394.456" font-family="Times,serif" font-size="14.00">new</text>
<text text-anchor="start" x="299.815" y="408.456" font-family="Times,serif" font-size="14.00">order</text>
<text text-anchor="start" x="299.815" y="422.456" font-family="Times,serif" font-size="14.00">purchase</text>
<text text-anchor="start" x="299.815" y="436.456" font-family="Times,serif" font-size="14.00">show</text>
<text text-anchor="start" x="299.815" y="450.456" font-family="Times,serif" font-size="14.00">update</text>
<polyline fill="none" stroke="black" points="291.815,457.256 414.332,457.256 "/>
<polyline fill="none" stroke="black" points="291.815,481.256 414.332,481.256 "/>
<text text-anchor="start" x="299.815" y="496.456" font-family="Times,serif" font-size="14.00">_layout</text>
<text text-anchor="start" x="299.815" y="510.456" font-family="Times,serif" font-size="14.00">item_discount</text>
<text text-anchor="start" x="299.815" y="524.456" font-family="Times,serif" font-size="14.00">load_basket</text>
<text text-anchor="start" x="299.815" y="538.456" font-family="Times,serif" font-size="14.00">params_for_basket</text>
<text text-anchor="start" x="299.815" y="552.456" font-family="Times,serif" font-size="14.00">redirect_if_locked</text>
</g>
<!-- AdminController&#45;&gt;BasketsController -->
<g id="edge2" class="edge"><title>AdminController&#45;&gt;BasketsController</title>
<path fill="none" stroke="black" d="M121.133,-53.02C149.23,18.1023 199.586,140.367 251.555,241.113 263.748,264.751 277.936,289.594 291.77,312.713"/>
</g>
<!-- CategoriesController -->
<g id="node5" class="node"><title>CategoriesController</title>
<path fill="none" stroke="black" d="M-65.6436,-358.586C-65.6436,-358.586 43.7705,-358.586 43.7705,-358.586 49.7705,-358.586 55.7705,-364.586 55.7705,-370.586 55.7705,-370.586 55.7705,-548.586 55.7705,-548.586 55.7705,-554.586 49.7705,-560.586 43.7705,-560.586 43.7705,-560.586 -65.6436,-560.586 -65.6436,-560.586 -71.6436,-560.586 -77.6436,-554.586 -77.6436,-548.586 -77.6436,-548.586 -77.6436,-370.586 -77.6436,-370.586 -77.6436,-364.586 -71.6436,-358.586 -65.6436,-358.586"/>
<text text-anchor="middle" x="-10.9366" y="-545.386" font-family="Times,serif" font-size="14.00">CategoriesController</text>
<polyline fill="none" stroke="black" points="-77.6436,-538.586 55.7705,-538.586 "/>
<text text-anchor="start" x="-69.6436" y="-523.386" font-family="Times,serif" font-size="14.00">create</text>
<text text-anchor="start" x="-69.6436" y="-509.386" font-family="Times,serif" font-size="14.00">destroy</text>
<text text-anchor="start" x="-69.6436" y="-495.386" font-family="Times,serif" font-size="14.00">edit</text>
<text text-anchor="start" x="-69.6436" y="-481.386" font-family="Times,serif" font-size="14.00">index</text>
<text text-anchor="start" x="-69.6436" y="-467.386" font-family="Times,serif" font-size="14.00">new</text>
<text text-anchor="start" x="-69.6436" y="-453.386" font-family="Times,serif" font-size="14.00">show</text>
<text text-anchor="start" x="-69.6436" y="-439.386" font-family="Times,serif" font-size="14.00">update</text>
<polyline fill="none" stroke="black" points="-77.6436,-432.586 55.7705,-432.586 "/>
<polyline fill="none" stroke="black" points="-77.6436,-408.586 55.7705,-408.586 "/>
<text text-anchor="start" x="-69.6436" y="-393.386" font-family="Times,serif" font-size="14.00">_layout</text>
<text text-anchor="start" x="-69.6436" y="-379.386" font-family="Times,serif" font-size="14.00">load_category</text>
<text text-anchor="start" x="-69.6436" y="-365.386" font-family="Times,serif" font-size="14.00">params_for_model</text>
</g>
<!-- AdminController&#45;&gt;CategoriesController -->
<g id="edge3" class="edge"><title>AdminController&#45;&gt;CategoriesController</title>
<path fill="none" stroke="black" d="M79.6064,-171.599C63.5262,-222.745 39.9562,-297.713 20.8954,-358.339"/>
</g>
<!-- ClerksController -->
<g id="node6" class="node"><title>ClerksController</title>
<path fill="none" stroke="black" d="M292.174,-363.357C292.174,-363.357 389.919,-363.357 389.919,-363.357 395.919,-363.357 401.919,-369.357 401.919,-375.357 401.919,-375.357 401.919,-539.357 401.919,-539.357 401.919,-545.357 395.919,-551.357 389.919,-551.357 389.919,-551.357 292.174,-551.357 292.174,-551.357 286.174,-551.357 280.174,-545.357 280.174,-539.357 280.174,-539.357 280.174,-375.357 280.174,-375.357 280.174,-369.357 286.174,-363.357 292.174,-363.357"/>
<text text-anchor="middle" x="341.047" y="-536.157" font-family="Times,serif" font-size="14.00">ClerksController</text>
<polyline fill="none" stroke="black" points="280.174,-529.357 401.919,-529.357 "/>
<text text-anchor="start" x="288.174" y="-514.157" font-family="Times,serif" font-size="14.00">create</text>
<text text-anchor="start" x="288.174" y="-500.157" font-family="Times,serif" font-size="14.00">edit</text>
<text text-anchor="start" x="288.174" y="-486.157" font-family="Times,serif" font-size="14.00">index</text>
<text text-anchor="start" x="288.174" y="-472.157" font-family="Times,serif" font-size="14.00">new</text>
<text text-anchor="start" x="288.174" y="-458.157" font-family="Times,serif" font-size="14.00">show</text>
<text text-anchor="start" x="288.174" y="-444.157" font-family="Times,serif" font-size="14.00">update</text>
<polyline fill="none" stroke="black" points="280.174,-437.357 401.919,-437.357 "/>
<polyline fill="none" stroke="black" points="280.174,-413.357 401.919,-413.357 "/>
<text text-anchor="start" x="288.174" y="-398.157" font-family="Times,serif" font-size="14.00">_layout</text>
<text text-anchor="start" x="288.174" y="-384.157" font-family="Times,serif" font-size="14.00">load_clerk</text>
<text text-anchor="start" x="288.174" y="-370.157" font-family="Times,serif" font-size="14.00">params_for_model</text>
</g>
<!-- AdminController&#45;&gt;ClerksController -->
<g id="edge4" class="edge"><title>AdminController&#45;&gt;ClerksController</title>
<path fill="none" stroke="black" d="M139.99,-171.611C178.564,-226.432 236.348,-308.557 280.084,-370.715"/>
</g>
<!-- ManageController -->
<g id="node7" class="node"><title>ManageController</title>
<path fill="none" stroke="black" d="M-427.077,-385.753C-427.077,-385.753 -332.442,-385.753 -332.442,-385.753 -326.442,-385.753 -320.442,-391.753 -320.442,-397.753 -320.442,-397.753 -320.442,-463.753 -320.442,-463.753 -320.442,-469.753 -326.442,-475.753 -332.442,-475.753 -332.442,-475.753 -427.077,-475.753 -427.077,-475.753 -433.077,-475.753 -439.077,-469.753 -439.077,-463.753 -439.077,-463.753 -439.077,-397.753 -439.077,-397.753 -439.077,-391.753 -433.077,-385.753 -427.077,-385.753"/>
<text text-anchor="middle" x="-379.759" y="-460.553" font-family="Times,serif" font-size="14.00">ManageController</text>
<polyline fill="none" stroke="black" points="-439.077,-453.753 -320.442,-453.753 "/>
<text text-anchor="start" x="-431.077" y="-438.553" font-family="Times,serif" font-size="14.00">all</text>
<polyline fill="none" stroke="black" points="-439.077,-431.753 -320.442,-431.753 "/>
<polyline fill="none" stroke="black" points="-439.077,-407.753 -320.442,-407.753 "/>
<text text-anchor="start" x="-431.077" y="-392.553" font-family="Times,serif" font-size="14.00">_layout</text>
</g>
<!-- AdminController&#45;&gt;ManageController -->
<g id="edge5" class="edge"><title>AdminController&#45;&gt;ManageController</title>
<path fill="none" stroke="black" d="M41.6926,-169.54C5.59371,-204.29 -43.2675,-248.149 -91.1552,-281.134 -165.754,-332.517 -260.254,-378.282 -320.379,-405.275"/>
</g>
<!-- OrdersController -->
<g id="node9" class="node"><title>OrdersController</title>
<path fill="none" stroke="black" d="M344.776,-23.3361C344.776,-23.3361 437.066,-23.3361 437.066,-23.3361 443.066,-23.3361 449.066,-29.3361 449.066,-35.3361 449.066,-35.3361 449.066,-255.336 449.066,-255.336 449.066,-261.336 443.066,-267.336 437.066,-267.336 437.066,-267.336 344.776,-267.336 344.776,-267.336 338.776,-267.336 332.776,-261.336 332.776,-255.336 332.776,-255.336 332.776,-35.3361 332.776,-35.3361 332.776,-29.3361 338.776,-23.3361 344.776,-23.3361"/>
<text text-anchor="middle" x="390.921" y="-252.136" font-family="Times,serif" font-size="14.00">OrdersController</text>
<polyline fill="none" stroke="black" points="332.776,-245.336 449.066,-245.336 "/>
<text text-anchor="start" x="340.776" y="-230.136" font-family="Times,serif" font-size="14.00">destroy</text>
<text text-anchor="start" x="340.776" y="-216.136" font-family="Times,serif" font-size="14.00">edit</text>
<text text-anchor="start" x="340.776" y="-202.136" font-family="Times,serif" font-size="14.00">index</text>
<text text-anchor="start" x="340.776" y="-188.136" font-family="Times,serif" font-size="14.00">mail</text>
<text text-anchor="start" x="340.776" y="-174.136" font-family="Times,serif" font-size="14.00">new</text>
<text text-anchor="start" x="340.776" y="-160.136" font-family="Times,serif" font-size="14.00">pay</text>
<text text-anchor="start" x="340.776" y="-146.136" font-family="Times,serif" font-size="14.00">ship</text>
<text text-anchor="start" x="340.776" y="-132.136" font-family="Times,serif" font-size="14.00">shipment</text>
<text text-anchor="start" x="340.776" y="-118.136" font-family="Times,serif" font-size="14.00">show</text>
<text text-anchor="start" x="340.776" y="-104.136" font-family="Times,serif" font-size="14.00">update</text>
<polyline fill="none" stroke="black" points="332.776,-97.3361 449.066,-97.3361 "/>
<polyline fill="none" stroke="black" points="332.776,-73.3361 449.066,-73.3361 "/>
<text text-anchor="start" x="340.776" y="-58.1361" font-family="Times,serif" font-size="14.00">_layout</text>
<text text-anchor="start" x="340.776" y="-44.1361" font-family="Times,serif" font-size="14.00">load_order</text>
<text text-anchor="start" x="340.776" y="-30.1361" font-family="Times,serif" font-size="14.00">params_for_order</text>
</g>
<!-- AdminController&#45;&gt;OrdersController -->
<g id="edge7" class="edge"><title>AdminController&#45;&gt;OrdersController</title>
<path fill="none" stroke="black" d="M154.682,-118.663C205.842,-124.439 280.94,-132.918 332.661,-138.758"/>
</g>
<!-- ProductsController -->
<g id="node10" class="node"><title>ProductsController</title>
<path fill="none" stroke="black" d="M-51.6697,508.23C-51.6697,508.23 46.8753,508.23 46.8753,508.23 52.8753,508.23 58.8753,502.23 58.8753,496.23 58.8753,496.23 58.8753,318.23 58.8753,318.23 58.8753,312.23 52.8753,306.23 46.8753,306.23 46.8753,306.23 -51.6697,306.23 -51.6697,306.23 -57.6697,306.23 -63.6697,312.23 -63.6697,318.23 -63.6697,318.23 -63.6697,496.23 -63.6697,496.23 -63.6697,502.23 -57.6697,508.23 -51.6697,508.23"/>
<text text-anchor="middle" x="-2.3972" y="321.43" font-family="Times,serif" font-size="14.00">ProductsController</text>
<polyline fill="none" stroke="black" points="-63.6697,328.23 58.8753,328.23 "/>
<text text-anchor="start" x="-55.6697" y="343.43" font-family="Times,serif" font-size="14.00">create</text>
<text text-anchor="start" x="-55.6697" y="357.43" font-family="Times,serif" font-size="14.00">destroy</text>
<text text-anchor="start" x="-55.6697" y="371.43" font-family="Times,serif" font-size="14.00">edit</text>
<text text-anchor="start" x="-55.6697" y="385.43" font-family="Times,serif" font-size="14.00">index</text>
<text text-anchor="start" x="-55.6697" y="399.43" font-family="Times,serif" font-size="14.00">load_product</text>
<text text-anchor="start" x="-55.6697" y="413.43" font-family="Times,serif" font-size="14.00">new</text>
<text text-anchor="start" x="-55.6697" y="427.43" font-family="Times,serif" font-size="14.00">params_for_model</text>
<text text-anchor="start" x="-55.6697" y="441.43" font-family="Times,serif" font-size="14.00">show</text>
<text text-anchor="start" x="-55.6697" y="455.43" font-family="Times,serif" font-size="14.00">update</text>
<polyline fill="none" stroke="black" points="-63.6697,462.23 58.8753,462.23 "/>
<polyline fill="none" stroke="black" points="-63.6697,486.23 58.8753,486.23 "/>
<text text-anchor="start" x="-55.6697" y="501.43" font-family="Times,serif" font-size="14.00">_layout</text>
</g>
<!-- AdminController&#45;&gt;ProductsController -->
<g id="edge8" class="edge"><title>AdminController&#45;&gt;ProductsController</title>
<path fill="none" stroke="black" d="M86.8048,-53.2018C69.8792,34.1626 37.9523,198.959 17.2414,305.862"/>
</g>
<!-- PurchasesController -->
<g id="node11" class="node"><title>PurchasesController</title>
<path fill="none" stroke="black" d="M266.755,237.913C266.755,237.913 372.286,237.913 372.286,237.913 378.286,237.913 384.286,231.913 384.286,225.913 384.286,225.913 384.286,19.9133 384.286,19.9133 384.286,13.9133 378.286,7.91325 372.286,7.91325 372.286,7.91325 266.755,7.91325 266.755,7.91325 260.755,7.91325 254.755,13.9133 254.755,19.9133 254.755,19.9133 254.755,225.913 254.755,225.913 254.755,231.913 260.755,237.913 266.755,237.913"/>
<text text-anchor="middle" x="319.52" y="23.1133" font-family="Times,serif" font-size="14.00">PurchasesController</text>
<polyline fill="none" stroke="black" points="254.755,29.9133 384.286,29.9133 "/>
<text text-anchor="start" x="262.755" y="45.1133" font-family="Times,serif" font-size="14.00">create</text>
<text text-anchor="start" x="262.755" y="59.1133" font-family="Times,serif" font-size="14.00">edit</text>
<text text-anchor="start" x="262.755" y="73.1133" font-family="Times,serif" font-size="14.00">index</text>
<text text-anchor="start" x="262.755" y="87.1133" font-family="Times,serif" font-size="14.00">inventory</text>
<text text-anchor="start" x="262.755" y="101.113" font-family="Times,serif" font-size="14.00">new</text>
<text text-anchor="start" x="262.755" y="115.113" font-family="Times,serif" font-size="14.00">order</text>
<text text-anchor="start" x="262.755" y="129.113" font-family="Times,serif" font-size="14.00">receive</text>
<text text-anchor="start" x="262.755" y="143.113" font-family="Times,serif" font-size="14.00">show</text>
<text text-anchor="start" x="262.755" y="157.113" font-family="Times,serif" font-size="14.00">update</text>
<polyline fill="none" stroke="black" points="254.755,163.913 384.286,163.913 "/>
<polyline fill="none" stroke="black" points="254.755,187.913 384.286,187.913 "/>
<text text-anchor="start" x="262.755" y="203.113" font-family="Times,serif" font-size="14.00">_layout</text>
<text text-anchor="start" x="262.755" y="217.113" font-family="Times,serif" font-size="14.00">load_purchase</text>
<text text-anchor="start" x="262.755" y="231.113" font-family="Times,serif" font-size="14.00">params_for_model</text>
</g>
<!-- AdminController&#45;&gt;PurchasesController -->
<g id="edge9" class="edge"><title>AdminController&#45;&gt;PurchasesController</title>
<path fill="none" stroke="black" d="M153.802,-53.2432C184.398,-20.7204 222.539,19.8237 254.515,53.8137"/>
</g>
<!-- SuppliersController -->
<g id="node13" class="node"><title>SuppliersController</title>
<path fill="none" stroke="black" d="M-214.211,-75.9342C-214.211,-75.9342 -106.355,-75.9342 -106.355,-75.9342 -100.355,-75.9342 -94.3552,-81.9342 -94.3552,-87.9342 -94.3552,-87.9342 -94.3552,-265.934 -94.3552,-265.934 -94.3552,-271.934 -100.355,-277.934 -106.355,-277.934 -106.355,-277.934 -214.211,-277.934 -214.211,-277.934 -220.211,-277.934 -226.211,-271.934 -226.211,-265.934 -226.211,-265.934 -226.211,-87.9342 -226.211,-87.9342 -226.211,-81.9342 -220.211,-75.9342 -214.211,-75.9342"/>
<text text-anchor="middle" x="-160.283" y="-262.734" font-family="Times,serif" font-size="14.00">SuppliersController</text>
<polyline fill="none" stroke="black" points="-226.211,-255.934 -94.3552,-255.934 "/>
<text text-anchor="start" x="-218.211" y="-240.734" font-family="Times,serif" font-size="14.00">create</text>
<text text-anchor="start" x="-218.211" y="-226.734" font-family="Times,serif" font-size="14.00">destroy</text>
<text text-anchor="start" x="-218.211" y="-212.734" font-family="Times,serif" font-size="14.00">edit</text>
<text text-anchor="start" x="-218.211" y="-198.734" font-family="Times,serif" font-size="14.00">index</text>
<text text-anchor="start" x="-218.211" y="-184.734" font-family="Times,serif" font-size="14.00">new</text>
<text text-anchor="start" x="-218.211" y="-170.734" font-family="Times,serif" font-size="14.00">show</text>
<text text-anchor="start" x="-218.211" y="-156.734" font-family="Times,serif" font-size="14.00">update</text>
<polyline fill="none" stroke="black" points="-226.211,-149.934 -94.3552,-149.934 "/>
<polyline fill="none" stroke="black" points="-226.211,-125.934 -94.3552,-125.934 "/>
<text text-anchor="start" x="-218.211" y="-110.734" font-family="Times,serif" font-size="14.00">_layout</text>
<text text-anchor="start" x="-218.211" y="-96.7342" font-family="Times,serif" font-size="14.00">load_supplier</text>
<text text-anchor="start" x="-218.211" y="-82.7342" font-family="Times,serif" font-size="14.00">params_for_supplier</text>
</g>
<!-- AdminController&#45;&gt;SuppliersController -->
<g id="edge11" class="edge"><title>AdminController&#45;&gt;SuppliersController</title>
<path fill="none" stroke="black" d="M41.8354,-126.398C1.86821,-136.391 -51.894,-149.833 -93.9233,-160.342"/>
</g>
<!-- OfficeController&#45;&gt;AdminController -->
<g id="edge1" class="edge"><title>OfficeController&#45;&gt;AdminController</title>
<path fill="none" stroke="black" d="M-51.4073,73.4273C-22.3408,37.3576 18.6767,-13.5428 50.422,-52.9369"/>
</g>
<!-- SessionsController -->
<g id="node12" class="node"><title>SessionsController</title>
<path fill="none" stroke="black" d="M-429.956,464.838C-429.956,464.838 -311.231,464.838 -311.231,464.838 -305.231,464.838 -299.231,458.838 -299.231,452.838 -299.231,452.838 -299.231,302.838 -299.231,302.838 -299.231,296.838 -305.231,290.838 -311.231,290.838 -311.231,290.838 -429.956,290.838 -429.956,290.838 -435.956,290.838 -441.956,296.838 -441.956,302.838 -441.956,302.838 -441.956,452.838 -441.956,452.838 -441.956,458.838 -435.956,464.838 -429.956,464.838"/>
<text text-anchor="middle" x="-370.594" y="306.038" font-family="Times,serif" font-size="14.00">SessionsController</text>
<polyline fill="none" stroke="black" points="-441.956,312.838 -299.231,312.838 "/>
<text text-anchor="start" x="-433.956" y="328.038" font-family="Times,serif" font-size="14.00">create</text>
<text text-anchor="start" x="-433.956" y="342.038" font-family="Times,serif" font-size="14.00">sign_in</text>
<text text-anchor="start" x="-433.956" y="356.038" font-family="Times,serif" font-size="14.00">sign_out</text>
<text text-anchor="start" x="-433.956" y="370.038" font-family="Times,serif" font-size="14.00">sign_up</text>
<polyline fill="none" stroke="black" points="-441.956,376.838 -299.231,376.838 "/>
<polyline fill="none" stroke="black" points="-441.956,400.838 -299.231,400.838 "/>
<text text-anchor="start" x="-433.956" y="416.038" font-family="Times,serif" font-size="14.00">_layout</text>
<text text-anchor="start" x="-433.956" y="430.038" font-family="Times,serif" font-size="14.00">params_for_clerk</text>
<text text-anchor="start" x="-433.956" y="444.038" font-family="Times,serif" font-size="14.00">redirect_after_sign_in</text>
<text text-anchor="start" x="-433.956" y="458.038" font-family="Times,serif" font-size="14.00">redirect_after_sign_up</text>
</g>
<!-- OfficeController&#45;&gt;SessionsController -->
<g id="edge10" class="edge"><title>OfficeController&#45;&gt;SessionsController</title>
<path fill="none" stroke="black" d="M-136.979,163.647C-181.778,204.721 -248.426,265.828 -299.083,312.273"/>
</g>
</g>
</svg>
