<?xml version="1.0" encoding="UTF-8" standalone="no"?>
<!DOCTYPE svg PUBLIC "-//W3C//DTD SVG 1.1//EN"
 "http://www.w3.org/Graphics/SVG/1.1/DTD/svg11.dtd">
<!-- Generated by graphviz version 2.38.0 (20140413.2041)
 -->
<!-- Title: models_diagram Pages: 1 -->
<svg width="1029pt" height="1066pt"
 viewBox="0.00 0.00 1028.79 1066.00" xmlns="http://www.w3.org/2000/svg" xmlns:xlink="http://www.w3.org/1999/xlink">
<g id="graph0" class="graph" transform="scale(1 1) rotate(0) translate(4 1062)">
<title>models_diagram</title>
<polygon fill="white" stroke="none" points="-4,4 -4,-1062 1024.79,-1062 1024.79,4 -4,4"/>
<!-- _diagram_info -->
<g id="node1" class="node"><title>_diagram_info</title>
<text text-anchor="start" x="268.442" y="-1043.6" font-family="Times,serif" font-size="13.00">Models diagram</text>
<text text-anchor="start" x="268.442" y="-1030.6" font-family="Times,serif" font-size="13.00">Date: Jan 07 2015</text>
<text text-anchor="start" x="268.442" y="-1017.6" font-family="Times,serif" font-size="13.00">OfficeClerk 0.8</text>
<text text-anchor="start" x="268.442" y="-1004.6" font-family="Times,serif" font-size="13.00">Generated by RailRoady 1.3.0</text>
</g>
<!-- Basket -->
<g id="node2" class="node"><title>Basket</title>
<path fill="none" stroke="black" d="M263.148,-340.5C263.148,-340.5 372.159,-340.5 372.159,-340.5 378.159,-340.5 384.159,-346.5 384.159,-352.5 384.159,-352.5 384.159,-470.5 384.159,-470.5 384.159,-476.5 378.159,-482.5 372.159,-482.5 372.159,-482.5 263.148,-482.5 263.148,-482.5 257.148,-482.5 251.148,-476.5 251.148,-470.5 251.148,-470.5 251.148,-352.5 251.148,-352.5 251.148,-346.5 257.148,-340.5 263.148,-340.5"/>
<text text-anchor="middle" x="317.654" y="-467.3" font-family="Times,serif" font-size="14.00">Basket</text>
<polyline fill="none" stroke="black" points="251.148,-460.5 384.159,-460.5 "/>
<text text-anchor="start" x="259.148" y="-445.3" font-family="Times,serif" font-size="14.00">id :integer</text>
<text text-anchor="start" x="259.148" y="-431.3" font-family="Times,serif" font-size="14.00">kori_id :integer</text>
<text text-anchor="start" x="259.148" y="-417.3" font-family="Times,serif" font-size="14.00">kori_type :string</text>
<text text-anchor="start" x="259.148" y="-403.3" font-family="Times,serif" font-size="14.00">total_price :decimal</text>
<text text-anchor="start" x="259.148" y="-389.3" font-family="Times,serif" font-size="14.00">total_tax :decimal</text>
<text text-anchor="start" x="259.148" y="-375.3" font-family="Times,serif" font-size="14.00">locked :date</text>
<text text-anchor="start" x="259.148" y="-361.3" font-family="Times,serif" font-size="14.00">created_at :datetime</text>
<text text-anchor="start" x="259.148" y="-347.3" font-family="Times,serif" font-size="14.00">updated_at :datetime</text>
</g>
<!-- Item -->
<g id="node5" class="node"><title>Item</title>
<path fill="none" stroke="black" d="M760.148,-0.5C760.148,-0.5 869.159,-0.5 869.159,-0.5 875.159,-0.5 881.159,-6.5 881.159,-12.5 881.159,-12.5 881.159,-144.5 881.159,-144.5 881.159,-150.5 875.159,-156.5 869.159,-156.5 869.159,-156.5 760.148,-156.5 760.148,-156.5 754.148,-156.5 748.148,-150.5 748.148,-144.5 748.148,-144.5 748.148,-12.5 748.148,-12.5 748.148,-6.5 754.148,-0.5 760.148,-0.5"/>
<text text-anchor="middle" x="814.654" y="-141.3" font-family="Times,serif" font-size="14.00">Item</text>
<polyline fill="none" stroke="black" points="748.148,-134.5 881.159,-134.5 "/>
<text text-anchor="start" x="756.148" y="-119.3" font-family="Times,serif" font-size="14.00">id :integer</text>
<text text-anchor="start" x="756.148" y="-105.3" font-family="Times,serif" font-size="14.00">quantity :integer</text>
<text text-anchor="start" x="756.148" y="-91.3" font-family="Times,serif" font-size="14.00">price :float</text>
<text text-anchor="start" x="756.148" y="-77.3" font-family="Times,serif" font-size="14.00">tax :float</text>
<text text-anchor="start" x="756.148" y="-63.3" font-family="Times,serif" font-size="14.00">name :string</text>
<text text-anchor="start" x="756.148" y="-49.3" font-family="Times,serif" font-size="14.00">product_id :integer</text>
<text text-anchor="start" x="756.148" y="-35.3" font-family="Times,serif" font-size="14.00">basket_id :integer</text>
<text text-anchor="start" x="756.148" y="-21.3" font-family="Times,serif" font-size="14.00">created_at :datetime</text>
<text text-anchor="start" x="756.148" y="-7.3" font-family="Times,serif" font-size="14.00">updated_at :datetime</text>
</g>
<!-- Basket&#45;&gt;Item -->
<g id="edge1" class="edge"><title>Basket&#45;&gt;Item</title>
<path fill="none" stroke="#4359cd" d="M390.979,-361.665C484.536,-299.357 645.499,-192.157 739.788,-129.36"/>
<ellipse fill="none" stroke="#4359cd" cx="387.495" cy="-363.986" rx="4.00002" ry="4.00002"/>
<polygon fill="#4359cd" stroke="#4359cd" points="739.816,-129.342 750.634,-127.544 743.978,-126.57 748.139,-123.798 748.139,-123.798 748.139,-123.798 743.978,-126.57 745.645,-120.053 739.816,-129.342 739.816,-129.342"/>
</g>
<!-- Category -->
<g id="node3" class="node"><title>Category</title>
<path fill="none" stroke="black" d="M566.717,-666.5C566.717,-666.5 756.59,-666.5 756.59,-666.5 762.59,-666.5 768.59,-672.5 768.59,-678.5 768.59,-678.5 768.59,-936.5 768.59,-936.5 768.59,-942.5 762.59,-948.5 756.59,-948.5 756.59,-948.5 566.717,-948.5 566.717,-948.5 560.717,-948.5 554.717,-942.5 554.717,-936.5 554.717,-936.5 554.717,-678.5 554.717,-678.5 554.717,-672.5 560.717,-666.5 566.717,-666.5"/>
<text text-anchor="middle" x="661.654" y="-933.3" font-family="Times,serif" font-size="14.00">Category</text>
<polyline fill="none" stroke="black" points="554.717,-926.5 768.59,-926.5 "/>
<text text-anchor="start" x="562.717" y="-911.3" font-family="Times,serif" font-size="14.00">id :integer</text>
<text text-anchor="start" x="562.717" y="-897.3" font-family="Times,serif" font-size="14.00">category_id :integer</text>
<text text-anchor="start" x="562.717" y="-883.3" font-family="Times,serif" font-size="14.00">online :boolean</text>
<text text-anchor="start" x="562.717" y="-869.3" font-family="Times,serif" font-size="14.00">name :string</text>
<text text-anchor="start" x="562.717" y="-855.3" font-family="Times,serif" font-size="14.00">description :string</text>
<text text-anchor="start" x="562.717" y="-841.3" font-family="Times,serif" font-size="14.00">position :integer</text>
<text text-anchor="start" x="562.717" y="-827.3" font-family="Times,serif" font-size="14.00">link :string</text>
<text text-anchor="start" x="562.717" y="-813.3" font-family="Times,serif" font-size="14.00">main_picture_file_name :string</text>
<text text-anchor="start" x="562.717" y="-799.3" font-family="Times,serif" font-size="14.00">main_picture_content_type :string</text>
<text text-anchor="start" x="562.717" y="-785.3" font-family="Times,serif" font-size="14.00">main_picture_file_size :integer</text>
<text text-anchor="start" x="562.717" y="-771.3" font-family="Times,serif" font-size="14.00">main_picture_updated_at :datetime</text>
<text text-anchor="start" x="562.717" y="-757.3" font-family="Times,serif" font-size="14.00">extra_picture_file_name :string</text>
<text text-anchor="start" x="562.717" y="-743.3" font-family="Times,serif" font-size="14.00">extra_picture_content_type :string</text>
<text text-anchor="start" x="562.717" y="-729.3" font-family="Times,serif" font-size="14.00">extra_picture_file_size :integer</text>
<text text-anchor="start" x="562.717" y="-715.3" font-family="Times,serif" font-size="14.00">extra_picture_updated_at :datetime</text>
<text text-anchor="start" x="562.717" y="-701.3" font-family="Times,serif" font-size="14.00">created_at :datetime</text>
<text text-anchor="start" x="562.717" y="-687.3" font-family="Times,serif" font-size="14.00">updated_at :datetime</text>
<text text-anchor="start" x="562.717" y="-673.3" font-family="Times,serif" font-size="14.00">summary :string</text>
</g>
<!-- Category&#45;&gt;Category -->
<g id="edge4" class="edge"><title>Category&#45;&gt;Category</title>
<path fill="none" stroke="#c7f125" d="M775.286,-835.56C782.343,-828.935 786.59,-819.582 786.59,-807.5 786.59,-796.385 782.995,-787.579 776.925,-781.082"/>
<ellipse fill="none" stroke="#c7f125" cx="771.928" cy="-838.082" rx="4.00002" ry="4.00002"/>
<polygon fill="#c7f125" stroke="#c7f125" points="776.534,-780.769 771.543,-771.004 772.631,-777.643 768.729,-774.516 768.729,-774.516 768.729,-774.516 772.631,-777.643 765.916,-778.028 776.534,-780.769 776.534,-780.769"/>
</g>
<!-- Product -->
<g id="node7" class="node"><title>Product</title>
<path fill="none" stroke="black" d="M719.717,-193.5C719.717,-193.5 909.59,-193.5 909.59,-193.5 915.59,-193.5 921.59,-199.5 921.59,-205.5 921.59,-205.5 921.59,-617.5 921.59,-617.5 921.59,-623.5 915.59,-629.5 909.59,-629.5 909.59,-629.5 719.717,-629.5 719.717,-629.5 713.717,-629.5 707.717,-623.5 707.717,-617.5 707.717,-617.5 707.717,-205.5 707.717,-205.5 707.717,-199.5 713.717,-193.5 719.717,-193.5"/>
<text text-anchor="middle" x="814.654" y="-614.3" font-family="Times,serif" font-size="14.00">Product</text>
<polyline fill="none" stroke="black" points="707.717,-607.5 921.59,-607.5 "/>
<text text-anchor="start" x="715.717" y="-592.3" font-family="Times,serif" font-size="14.00">id :integer</text>
<text text-anchor="start" x="715.717" y="-578.3" font-family="Times,serif" font-size="14.00">price :float</text>
<text text-anchor="start" x="715.717" y="-564.3" font-family="Times,serif" font-size="14.00">name :string</text>
<text text-anchor="start" x="715.717" y="-550.3" font-family="Times,serif" font-size="14.00">link :string</text>
<text text-anchor="start" x="715.717" y="-536.3" font-family="Times,serif" font-size="14.00">description :text</text>
<text text-anchor="start" x="715.717" y="-522.3" font-family="Times,serif" font-size="14.00">main_picture_file_name :string</text>
<text text-anchor="start" x="715.717" y="-508.3" font-family="Times,serif" font-size="14.00">main_picture_content_type :string</text>
<text text-anchor="start" x="715.717" y="-494.3" font-family="Times,serif" font-size="14.00">main_picture_file_size :integer</text>
<text text-anchor="start" x="715.717" y="-480.3" font-family="Times,serif" font-size="14.00">main_picture_updated_at :datetime</text>
<text text-anchor="start" x="715.717" y="-466.3" font-family="Times,serif" font-size="14.00">extra_picture_file_name :string</text>
<text text-anchor="start" x="715.717" y="-452.3" font-family="Times,serif" font-size="14.00">extra_picture_content_type :string</text>
<text text-anchor="start" x="715.717" y="-438.3" font-family="Times,serif" font-size="14.00">extra_picture_file_size :integer</text>
<text text-anchor="start" x="715.717" y="-424.3" font-family="Times,serif" font-size="14.00">extra_picture_updated_at :datetime</text>
<text text-anchor="start" x="715.717" y="-410.3" font-family="Times,serif" font-size="14.00">online :boolean</text>
<text text-anchor="start" x="715.717" y="-396.3" font-family="Times,serif" font-size="14.00">cost :float</text>
<text text-anchor="start" x="715.717" y="-382.3" font-family="Times,serif" font-size="14.00">weight :float</text>
<text text-anchor="start" x="715.717" y="-368.3" font-family="Times,serif" font-size="14.00">ean :string</text>
<text text-anchor="start" x="715.717" y="-354.3" font-family="Times,serif" font-size="14.00">tax :float</text>
<text text-anchor="start" x="715.717" y="-340.3" font-family="Times,serif" font-size="14.00">inventory :integer</text>
<text text-anchor="start" x="715.717" y="-326.3" font-family="Times,serif" font-size="14.00">stock_level :integer</text>
<text text-anchor="start" x="715.717" y="-312.3" font-family="Times,serif" font-size="14.00">properties :string</text>
<text text-anchor="start" x="715.717" y="-298.3" font-family="Times,serif" font-size="14.00">scode :string</text>
<text text-anchor="start" x="715.717" y="-284.3" font-family="Times,serif" font-size="14.00">deleted_on :date</text>
<text text-anchor="start" x="715.717" y="-270.3" font-family="Times,serif" font-size="14.00">product_id :integer</text>
<text text-anchor="start" x="715.717" y="-256.3" font-family="Times,serif" font-size="14.00">category_id :integer</text>
<text text-anchor="start" x="715.717" y="-242.3" font-family="Times,serif" font-size="14.00">supplier_id :integer</text>
<text text-anchor="start" x="715.717" y="-228.3" font-family="Times,serif" font-size="14.00">created_at :datetime</text>
<text text-anchor="start" x="715.717" y="-214.3" font-family="Times,serif" font-size="14.00">updated_at :datetime</text>
<text text-anchor="start" x="715.717" y="-200.3" font-family="Times,serif" font-size="14.00">summary :string</text>
</g>
<!-- Category&#45;&gt;Product -->
<g id="edge3" class="edge"><title>Category&#45;&gt;Product</title>
<path fill="none" stroke="#8b8097" d="M719.004,-658.813C721.511,-652.357 724.047,-645.826 726.601,-639.25"/>
<ellipse fill="none" stroke="#8b8097" cx="717.475" cy="-662.752" rx="4.00001" ry="4.00001"/>
<polygon fill="#8b8097" stroke="#8b8097" points="726.734,-638.908 734.549,-631.215 728.544,-634.247 730.354,-629.586 730.354,-629.586 730.354,-629.586 728.544,-634.247 726.159,-627.957 726.734,-638.908 726.734,-638.908"/>
</g>
<!-- Clerk -->
<g id="node4" class="node"><title>Clerk</title>
<path fill="none" stroke="black" d="M72.476,-736.5C72.476,-736.5 218.832,-736.5 218.832,-736.5 224.832,-736.5 230.832,-742.5 230.832,-748.5 230.832,-748.5 230.832,-866.5 230.832,-866.5 230.832,-872.5 224.832,-878.5 218.832,-878.5 218.832,-878.5 72.476,-878.5 72.476,-878.5 66.476,-878.5 60.476,-872.5 60.476,-866.5 60.476,-866.5 60.476,-748.5 60.476,-748.5 60.476,-742.5 66.476,-736.5 72.476,-736.5"/>
<text text-anchor="middle" x="145.654" y="-863.3" font-family="Times,serif" font-size="14.00">Clerk</text>
<polyline fill="none" stroke="black" points="60.476,-856.5 230.832,-856.5 "/>
<text text-anchor="start" x="68.476" y="-841.3" font-family="Times,serif" font-size="14.00">id :integer</text>
<text text-anchor="start" x="68.476" y="-827.3" font-family="Times,serif" font-size="14.00">email :string</text>
<text text-anchor="start" x="68.476" y="-813.3" font-family="Times,serif" font-size="14.00">admin :boolean</text>
<text text-anchor="start" x="68.476" y="-799.3" font-family="Times,serif" font-size="14.00">encrypted_password :string</text>
<text text-anchor="start" x="68.476" y="-785.3" font-family="Times,serif" font-size="14.00">password_salt :string</text>
<text text-anchor="start" x="68.476" y="-771.3" font-family="Times,serif" font-size="14.00">address :string</text>
<text text-anchor="start" x="68.476" y="-757.3" font-family="Times,serif" font-size="14.00">created_at :datetime</text>
<text text-anchor="start" x="68.476" y="-743.3" font-family="Times,serif" font-size="14.00">updated_at :datetime</text>
</g>
<!-- Clerk&#45;&gt;Basket -->
<g id="edge6" class="edge"><title>Clerk&#45;&gt;Basket</title>
<path fill="none" stroke="#d87125" d="M179.762,-728.369C209.623,-659.966 252.815,-561.026 282.874,-492.171"/>
<ellipse fill="none" stroke="#d87125" cx="178.004" cy="-732.395" rx="4.00002" ry="4.00002"/>
<polygon fill="#d87125" stroke="#d87125" points="283.024,-491.826 291.149,-484.461 285.025,-487.243 287.025,-482.661 287.025,-482.661 287.025,-482.661 285.025,-487.243 282.901,-480.86 283.024,-491.826 283.024,-491.826"/>
</g>
<!-- Order -->
<g id="node6" class="node"><title>Order</title>
<path fill="none" stroke="black" d="M260.797,-673.5C260.797,-673.5 374.511,-673.5 374.511,-673.5 380.511,-673.5 386.511,-679.5 386.511,-685.5 386.511,-685.5 386.511,-929.5 386.511,-929.5 386.511,-935.5 380.511,-941.5 374.511,-941.5 374.511,-941.5 260.797,-941.5 260.797,-941.5 254.797,-941.5 248.797,-935.5 248.797,-929.5 248.797,-929.5 248.797,-685.5 248.797,-685.5 248.797,-679.5 254.797,-673.5 260.797,-673.5"/>
<text text-anchor="middle" x="317.654" y="-926.3" font-family="Times,serif" font-size="14.00">Order</text>
<polyline fill="none" stroke="black" points="248.797,-919.5 386.511,-919.5 "/>
<text text-anchor="start" x="256.797" y="-904.3" font-family="Times,serif" font-size="14.00">id :integer</text>
<text text-anchor="start" x="256.797" y="-890.3" font-family="Times,serif" font-size="14.00">number :string</text>
<text text-anchor="start" x="256.797" y="-876.3" font-family="Times,serif" font-size="14.00">email :string</text>
<text text-anchor="start" x="256.797" y="-862.3" font-family="Times,serif" font-size="14.00">ordered_on :date</text>
<text text-anchor="start" x="256.797" y="-848.3" font-family="Times,serif" font-size="14.00">paid_on :date</text>
<text text-anchor="start" x="256.797" y="-834.3" font-family="Times,serif" font-size="14.00">canceled_on :date</text>
<text text-anchor="start" x="256.797" y="-820.3" font-family="Times,serif" font-size="14.00">shipped_on :date</text>
<text text-anchor="start" x="256.797" y="-806.3" font-family="Times,serif" font-size="14.00">payment_type :string</text>
<text text-anchor="start" x="256.797" y="-792.3" font-family="Times,serif" font-size="14.00">payment_info :string</text>
<text text-anchor="start" x="256.797" y="-778.3" font-family="Times,serif" font-size="14.00">shipment_type :string</text>
<text text-anchor="start" x="256.797" y="-764.3" font-family="Times,serif" font-size="14.00">shipment_info :string</text>
<text text-anchor="start" x="256.797" y="-750.3" font-family="Times,serif" font-size="14.00">shipment_price :float</text>
<text text-anchor="start" x="256.797" y="-736.3" font-family="Times,serif" font-size="14.00">shipment_tax :float</text>
<text text-anchor="start" x="256.797" y="-722.3" font-family="Times,serif" font-size="14.00">address :string</text>
<text text-anchor="start" x="256.797" y="-708.3" font-family="Times,serif" font-size="14.00">created_at :datetime</text>
<text text-anchor="start" x="256.797" y="-694.3" font-family="Times,serif" font-size="14.00">updated_at :datetime</text>
<text text-anchor="start" x="256.797" y="-680.3" font-family="Times,serif" font-size="14.00">note :string</text>
</g>
<!-- Order&#45;&gt;Basket -->
<g id="edge9" class="edge"><title>Order&#45;&gt;Basket</title>
<path fill="none" stroke="#2f5404" d="M317.654,-665.083C317.654,-606.346 317.654,-540.428 317.654,-490.664"/>
<ellipse fill="none" stroke="#2f5404" cx="317.654" cy="-669.384" rx="4" ry="4"/>
<ellipse fill="#2f5404" stroke="#2f5404" cx="317.654" cy="-486.507" rx="4" ry="4"/>
</g>
<!-- Product&#45;&gt;Item -->
<g id="edge12" class="edge"><title>Product&#45;&gt;Item</title>
<path fill="none" stroke="#5fd41d" d="M814.654,-185.379C814.654,-178.396 814.654,-171.576 814.654,-164.98"/>
<ellipse fill="none" stroke="#5fd41d" cx="814.654" cy="-189.411" rx="4" ry="4"/>
<ellipse fill="#5fd41d" stroke="#5fd41d" cx="814.654" cy="-160.749" rx="4" ry="4"/>
</g>
<!-- Product&#45;&gt;Product -->
<g id="edge11" class="edge"><title>Product&#45;&gt;Product</title>
<path fill="none" stroke="#b6282b" d="M927.206,-456.543C934.907,-446.195 939.59,-431.181 939.59,-411.5 939.59,-392.756 935.343,-378.245 928.286,-367.967"/>
<ellipse fill="none" stroke="#b6282b" cx="924.395" cy="-459.688" rx="4.00002" ry="4.00002"/>
<polygon fill="#b6282b" stroke="#b6282b" points="928.243,-367.917 925.144,-357.398 924.986,-364.123 921.729,-360.329 921.729,-360.329 921.729,-360.329 924.986,-364.123 918.315,-363.26 928.243,-367.917 928.243,-367.917"/>
</g>
<!-- Purchase -->
<g id="node8" class="node"><title>Purchase</title>
<path fill="none" stroke="black" d="M416.148,-750.5C416.148,-750.5 525.159,-750.5 525.159,-750.5 531.159,-750.5 537.159,-756.5 537.159,-762.5 537.159,-762.5 537.159,-852.5 537.159,-852.5 537.159,-858.5 531.159,-864.5 525.159,-864.5 525.159,-864.5 416.148,-864.5 416.148,-864.5 410.148,-864.5 404.148,-858.5 404.148,-852.5 404.148,-852.5 404.148,-762.5 404.148,-762.5 404.148,-756.5 410.148,-750.5 416.148,-750.5"/>
<text text-anchor="middle" x="470.654" y="-849.3" font-family="Times,serif" font-size="14.00">Purchase</text>
<polyline fill="none" stroke="black" points="404.148,-842.5 537.159,-842.5 "/>
<text text-anchor="start" x="412.148" y="-827.3" font-family="Times,serif" font-size="14.00">id :integer</text>
<text text-anchor="start" x="412.148" y="-813.3" font-family="Times,serif" font-size="14.00">name :string</text>
<text text-anchor="start" x="412.148" y="-799.3" font-family="Times,serif" font-size="14.00">ordered_on :date</text>
<text text-anchor="start" x="412.148" y="-785.3" font-family="Times,serif" font-size="14.00">received_on :date</text>
<text text-anchor="start" x="412.148" y="-771.3" font-family="Times,serif" font-size="14.00">created_at :datetime</text>
<text text-anchor="start" x="412.148" y="-757.3" font-family="Times,serif" font-size="14.00">updated_at :datetime</text>
</g>
<!-- Purchase&#45;&gt;Basket -->
<g id="edge14" class="edge"><title>Purchase&#45;&gt;Basket</title>
<path fill="none" stroke="#4f1a8e" d="M445.94,-742.857C419.185,-673.959 376.501,-564.041 347.796,-490.122"/>
<ellipse fill="none" stroke="#4f1a8e" cx="447.447" cy="-746.739" rx="4.00001" ry="4.00001"/>
<ellipse fill="#4f1a8e" stroke="#4f1a8e" cx="346.337" cy="-486.365" rx="4.00001" ry="4.00001"/>
</g>
<!-- Supplier -->
<g id="node9" class="node"><title>Supplier</title>
<path fill="none" stroke="black" d="M854.804,-757.5C854.804,-757.5 968.504,-757.5 968.504,-757.5 974.504,-757.5 980.504,-763.5 980.504,-769.5 980.504,-769.5 980.504,-845.5 980.504,-845.5 980.504,-851.5 974.504,-857.5 968.504,-857.5 968.504,-857.5 854.804,-857.5 854.804,-857.5 848.804,-857.5 842.804,-851.5 842.804,-845.5 842.804,-845.5 842.804,-769.5 842.804,-769.5 842.804,-763.5 848.804,-757.5 854.804,-757.5"/>
<text text-anchor="middle" x="911.654" y="-842.3" font-family="Times,serif" font-size="14.00">Supplier</text>
<polyline fill="none" stroke="black" points="842.804,-835.5 980.504,-835.5 "/>
<text text-anchor="start" x="850.804" y="-820.3" font-family="Times,serif" font-size="14.00">id :integer</text>
<text text-anchor="start" x="850.804" y="-806.3" font-family="Times,serif" font-size="14.00">supplier_name :string</text>
<text text-anchor="start" x="850.804" y="-792.3" font-family="Times,serif" font-size="14.00">address :string</text>
<text text-anchor="start" x="850.804" y="-778.3" font-family="Times,serif" font-size="14.00">created_at :datetime</text>
<text text-anchor="start" x="850.804" y="-764.3" font-family="Times,serif" font-size="14.00">updated_at :datetime</text>
</g>
<!-- Supplier&#45;&gt;Product -->
<g id="edge16" class="edge"><title>Supplier&#45;&gt;Product</title>
<path fill="none" stroke="#da460d" d="M897.59,-749.376C890.193,-719.329 880.588,-680.315 870.55,-639.543"/>
<ellipse fill="none" stroke="#da460d" cx="898.609" cy="-753.512" rx="4.00001" ry="4.00001"/>
<polygon fill="#da460d" stroke="#da460d" points="870.519,-639.417 872.498,-628.631 869.324,-634.562 868.129,-629.707 868.129,-629.707 868.129,-629.707 869.324,-634.562 863.759,-630.783 870.519,-639.417 870.519,-639.417"/>
</g>
<!-- ActiveRecord::Base -->
<g id="node10" class="node"><title>ActiveRecord::Base</title>
<ellipse fill="none" stroke="black" cx="566.654" cy="-1021.5" rx="81.1422" ry="18"/>
<text text-anchor="middle" x="566.654" y="-1017.3" font-family="Times,serif" font-size="14.00">ActiveRecord::Base</text>
</g>
<!-- ActiveRecord::Base&#45;&gt;Basket -->
<g id="edge2" class="edge"><title>ActiveRecord::Base&#45;&gt;Basket</title>
<path fill="none" stroke="black" d="M533.676,-1004.99C516.709,-997.694 495.475,-989.606 475.654,-985 429.6,-974.298 83.6408,-983.818 51.6538,-949 -33.4393,-856.376 2.12646,-781.616 51.6538,-666 91.9709,-571.884 186.291,-496.137 251.052,-452.721"/>
</g>
<!-- ActiveRecord::Base&#45;&gt;Category -->
<g id="edge5" class="edge"><title>ActiveRecord::Base&#45;&gt;Category</title>
<path fill="none" stroke="black" d="M574.267,-1003.51C580.167,-990.343 588.965,-970.711 598.739,-948.9"/>
</g>
<!-- ActiveRecord::Base&#45;&gt;Clerk -->
<g id="edge7" class="edge"><title>ActiveRecord::Base&#45;&gt;Clerk</title>
<path fill="none" stroke="black" d="M532.254,-1005.01C515.474,-997.989 494.82,-990.133 475.654,-985 373.163,-957.553 329.195,-1005.92 239.654,-949 213.153,-932.153 192.383,-904.844 177.184,-878.762"/>
</g>
<!-- ActiveRecord::Base&#45;&gt;Item -->
<g id="edge8" class="edge"><title>ActiveRecord::Base&#45;&gt;Item</title>
<path fill="none" stroke="black" d="M647.222,-1018.79C757.492,-1014.54 946.686,-999.84 989.654,-949 1058.07,-868.046 997.907,-288.246 948.654,-193 933.389,-163.482 906.831,-138.524 881.363,-119.594"/>
</g>
<!-- ActiveRecord::Base&#45;&gt;Order -->
<g id="edge10" class="edge"><title>ActiveRecord::Base&#45;&gt;Order</title>
<path fill="none" stroke="black" d="M528.729,-1005.48C479.71,-985.948 399.962,-953.767 394.654,-949 391.86,-946.491 389.147,-943.856 386.513,-941.115"/>
</g>
<!-- ActiveRecord::Base&#45;&gt;Product -->
<g id="edge13" class="edge"><title>ActiveRecord::Base&#45;&gt;Product</title>
<path fill="none" stroke="black" d="M646.66,-1017.92C697.891,-1011.65 761.041,-994.363 795.654,-949 833.356,-899.588 836.93,-756.037 831.704,-629.851"/>
</g>
<!-- ActiveRecord::Base&#45;&gt;Purchase -->
<g id="edge15" class="edge"><title>ActiveRecord::Base&#45;&gt;Purchase</title>
<path fill="none" stroke="black" d="M558.96,-1003.51C545.479,-973.738 517.027,-910.907 496.045,-864.572"/>
</g>
<!-- ActiveRecord::Base&#45;&gt;Supplier -->
<g id="edge17" class="edge"><title>ActiveRecord::Base&#45;&gt;Supplier</title>
<path fill="none" stroke="black" d="M642.812,-1014.99C699.055,-1007.54 774.865,-990.044 828.654,-949 858.947,-925.885 880.319,-888.275 893.783,-857.783"/>
</g>
</g>
</svg>
