<?xml version="1.0" encoding="UTF-8" standalone="no"?>
<!DOCTYPE svg PUBLIC "-//W3C//DTD SVG 1.1//EN"
 "http://www.w3.org/Graphics/SVG/1.1/DTD/svg11.dtd">
<!-- Generated by graphviz version 2.38.0 (20140413.2041)
 -->
<!-- Title: models_diagram Pages: 1 -->
<svg width="579pt" height="297pt"
 viewBox="0.00 0.00 579.22 297.00" xmlns="http://www.w3.org/2000/svg" xmlns:xlink="http://www.w3.org/1999/xlink">
<g id="graph0" class="graph" transform="scale(1 1) rotate(0) translate(4 293)">
<title>models_diagram</title>
<polygon fill="white" stroke="none" points="-4,4 -4,-293 575.223,-293 575.223,4 -4,4"/>
<!-- _diagram_info -->
<g id="node1" class="node"><title>_diagram_info</title>
<text text-anchor="start" x="8" y="-274.6" font-family="Times,serif" font-size="13.00">Models diagram</text>
<text text-anchor="start" x="8" y="-261.6" font-family="Times,serif" font-size="13.00">Date: Jan 06 2015 </text>
<text text-anchor="start" x="8" y="-248.6" font-family="Times,serif" font-size="13.00">OfficeClerk version: 0.8</text>
<text text-anchor="start" x="8" y="-235.6" font-family="Times,serif" font-size="13.00">Generated by RailRoady 1.3.0</text>
</g>
<!-- Basket -->
<g id="node2" class="node"><title>Basket</title>
<ellipse fill="none" stroke="black" cx="163.212" cy="-90" rx="34.3527" ry="18"/>
<text text-anchor="middle" x="163.212" y="-85.8" font-family="Times,serif" font-size="14.00">Basket</text>
</g>
<!-- Item -->
<g id="node5" class="node"><title>Item</title>
<ellipse fill="none" stroke="black" cx="372.212" cy="-18" rx="27" ry="18"/>
<text text-anchor="middle" x="372.212" y="-13.8" font-family="Times,serif" font-size="14.00">Item</text>
</g>
<!-- Basket&#45;&gt;Item -->
<g id="edge1" class="edge"><title>Basket&#45;&gt;Item</title>
<path fill="none" stroke="#2bf313" d="M199.054,-76.9955C238.337,-63.8384 300.841,-42.904 339.034,-30.112"/>
<ellipse fill="none" stroke="#2bf313" cx="195.191" cy="-78.2891" rx="4.00001" ry="4.00001"/>
<polygon fill="#2bf313" stroke="#2bf313" points="339.175,-30.065 350.086,-31.1561 343.916,-28.477 348.657,-26.8891 348.657,-26.8891 348.657,-26.8891 343.916,-28.477 347.228,-22.622 339.175,-30.065 339.175,-30.065"/>
</g>
<!-- Category -->
<g id="node3" class="node"><title>Category</title>
<ellipse fill="none" stroke="black" cx="357.212" cy="-162" rx="42.5456" ry="18"/>
<text text-anchor="middle" x="357.212" y="-157.8" font-family="Times,serif" font-size="14.00">Category</text>
</g>
<!-- Category&#45;&gt;Category -->
<g id="edge4" class="edge"><title>Category&#45;&gt;Category</title>
<path fill="none" stroke="#584cdf" d="M395.177,-175.5C407.721,-175.467 417.734,-170.967 417.734,-162 417.734,-153.541 408.823,-149.057 397.281,-148.549"/>
<ellipse fill="none" stroke="#584cdf" cx="391.097" cy="-175.218" rx="4" ry="4"/>
<polygon fill="#584cdf" stroke="#584cdf" points="397.094,-148.558 386.882,-144.563 392.1,-148.807 387.106,-149.057 387.106,-149.057 387.106,-149.057 392.1,-148.807 387.331,-153.551 397.094,-148.558 397.094,-148.558"/>
</g>
<!-- Product -->
<g id="node7" class="node"><title>Product</title>
<ellipse fill="none" stroke="black" cx="446.212" cy="-90" rx="37.7352" ry="18"/>
<text text-anchor="middle" x="446.212" y="-85.8" font-family="Times,serif" font-size="14.00">Product</text>
</g>
<!-- Category&#45;&gt;Product -->
<g id="edge3" class="edge"><title>Category&#45;&gt;Product</title>
<path fill="none" stroke="#cc838f" d="M382.832,-140.849C394.321,-131.813 407.872,-121.155 419.488,-112.019"/>
<ellipse fill="none" stroke="#cc838f" cx="379.667" cy="-143.338" rx="4.00002" ry="4.00002"/>
<polygon fill="#cc838f" stroke="#cc838f" points="419.687,-111.862 430.33,-109.217 423.618,-108.771 427.548,-105.68 427.548,-105.68 427.548,-105.68 423.618,-108.771 424.766,-102.143 419.687,-111.862 419.687,-111.862"/>
</g>
<!-- Clerk -->
<g id="node4" class="node"><title>Clerk</title>
<ellipse fill="none" stroke="black" cx="85.2117" cy="-162" rx="29.5104" ry="18"/>
<text text-anchor="middle" x="85.2117" y="-157.8" font-family="Times,serif" font-size="14.00">Clerk</text>
</g>
<!-- Clerk&#45;&gt;Basket -->
<g id="edge6" class="edge"><title>Clerk&#45;&gt;Basket</title>
<path fill="none" stroke="#b1f705" d="M107.577,-140.929C117.371,-132.139 128.887,-121.804 138.893,-112.824"/>
<ellipse fill="none" stroke="#b1f705" cx="104.35" cy="-143.824" rx="4.00002" ry="4.00002"/>
<polygon fill="#b1f705" stroke="#b1f705" points="139.09,-112.648 149.538,-109.318 142.811,-109.308 146.533,-105.968 146.533,-105.968 146.533,-105.968 142.811,-109.308 143.527,-102.619 139.09,-112.648 139.09,-112.648"/>
</g>
<!-- Order -->
<g id="node6" class="node"><title>Order</title>
<ellipse fill="none" stroke="black" cx="163.212" cy="-162" rx="30.9619" ry="18"/>
<text text-anchor="middle" x="163.212" y="-157.8" font-family="Times,serif" font-size="14.00">Order</text>
</g>
<!-- Order&#45;&gt;Basket -->
<g id="edge9" class="edge"><title>Order&#45;&gt;Basket</title>
<path fill="none" stroke="#83f57d" d="M163.212,-135.64C163.212,-129.348 163.212,-122.605 163.212,-116.316"/>
<ellipse fill="none" stroke="#83f57d" cx="163.212" cy="-139.697" rx="4" ry="4"/>
<ellipse fill="#83f57d" stroke="#83f57d" cx="163.212" cy="-112.104" rx="4" ry="4"/>
</g>
<!-- Product&#45;&gt;Product -->
<g id="edge11" class="edge"><title>Product&#45;&gt;Product</title>
<path fill="none" stroke="#b68c5d" d="M481.091,-103.5C492.623,-103.469 501.829,-98.9692 501.829,-90 501.829,-81.5482 493.654,-77.0649 483.063,-76.5501"/>
<ellipse fill="none" stroke="#b68c5d" cx="476.807" cy="-103.141" rx="4" ry="4"/>
<polygon fill="#b68c5d" stroke="#b68c5d" points="482.801,-76.5664 472.539,-72.7018 477.811,-76.8797 472.821,-77.193 472.821,-77.193 472.821,-77.193 477.811,-76.8797 473.103,-81.6841 482.801,-76.5664 482.801,-76.5664"/>
</g>
<!-- Purchase -->
<g id="node8" class="node"><title>Purchase</title>
<ellipse fill="none" stroke="black" cx="254.212" cy="-162" rx="42.0611" ry="18"/>
<text text-anchor="middle" x="254.212" y="-157.8" font-family="Times,serif" font-size="14.00">Purchase</text>
</g>
<!-- Purchase&#45;&gt;Basket -->
<g id="edge13" class="edge"><title>Purchase&#45;&gt;Basket</title>
<path fill="none" stroke="#dbadee" d="M227.925,-140.78C215.429,-131.167 200.565,-119.734 188.236,-110.25"/>
<ellipse fill="none" stroke="#dbadee" cx="231.296" cy="-143.372" rx="4.00002" ry="4.00002"/>
<ellipse fill="#dbadee" stroke="#dbadee" cx="184.849" cy="-107.644" rx="4.00002" ry="4.00002"/>
</g>
<!-- Supplier -->
<g id="node9" class="node"><title>Supplier</title>
<ellipse fill="none" stroke="black" cx="514.212" cy="-162" rx="40.149" ry="18"/>
<text text-anchor="middle" x="514.212" y="-157.8" font-family="Times,serif" font-size="14.00">Supplier</text>
</g>
<!-- Supplier&#45;&gt;Product -->
<g id="edge15" class="edge"><title>Supplier&#45;&gt;Product</title>
<path fill="none" stroke="#8cba3a" d="M493.029,-139.194C485.393,-131.334 476.748,-122.434 468.983,-114.441"/>
<ellipse fill="none" stroke="#8cba3a" cx="495.994" cy="-142.247" rx="4.00002" ry="4.00002"/>
<polygon fill="#8cba3a" stroke="#8cba3a" points="468.549,-113.994 464.809,-103.686 465.065,-110.408 461.581,-106.821 461.581,-106.821 461.581,-106.821 465.065,-110.408 458.353,-109.957 468.549,-113.994 468.549,-113.994"/>
</g>
<!-- ActiveRecord::Base -->
<g id="node10" class="node"><title>ActiveRecord::Base</title>
<ellipse fill="none" stroke="black" cx="306.212" cy="-252.5" rx="81.1422" ry="18"/>
<text text-anchor="middle" x="306.212" y="-248.3" font-family="Times,serif" font-size="14.00">ActiveRecord::Base</text>
</g>
<!-- ActiveRecord::Base&#45;&gt;Basket -->
<g id="edge2" class="edge"><title>ActiveRecord::Base&#45;&gt;Basket</title>
<path fill="none" stroke="black" d="M270.806,-236.146C254.155,-229.326 233.894,-221.594 215.212,-216 141.642,-193.973 94.528,-239.693 46.2117,-180 36.1453,-167.563 37.5408,-157.447 46.2117,-144 64.7616,-115.233 103.131,-101.908 130.883,-95.8505"/>
</g>
<!-- ActiveRecord::Base&#45;&gt;Category -->
<g id="edge5" class="edge"><title>ActiveRecord::Base&#45;&gt;Category</title>
<path fill="none" stroke="black" d="M316.045,-234.436C325.134,-218.665 338.558,-195.37 347.582,-179.711"/>
</g>
<!-- ActiveRecord::Base&#45;&gt;Clerk -->
<g id="edge7" class="edge"><title>ActiveRecord::Base&#45;&gt;Clerk</title>
<path fill="none" stroke="black" d="M267.899,-236.557C215.292,-216.036 126.741,-181.478 123.212,-180 118.412,-177.99 113.306,-175.766 108.446,-173.607"/>
</g>
<!-- ActiveRecord::Base&#45;&gt;Item -->
<g id="edge8" class="edge"><title>ActiveRecord::Base&#45;&gt;Item</title>
<path fill="none" stroke="black" d="M373.029,-242.15C441.226,-231.078 540.237,-210.239 563.212,-180 595.744,-137.182 512.769,-73.1957 511.212,-72 476.694,-45.4977 427.397,-30.922 397.73,-24.0542"/>
</g>
<!-- ActiveRecord::Base&#45;&gt;Order -->
<g id="edge10" class="edge"><title>ActiveRecord::Base&#45;&gt;Order</title>
<path fill="none" stroke="black" d="M279.983,-235.268C252.246,-218.102 209.068,-191.38 183.719,-175.692"/>
</g>
<!-- ActiveRecord::Base&#45;&gt;Product -->
<g id="edge12" class="edge"><title>ActiveRecord::Base&#45;&gt;Product</title>
<path fill="none" stroke="black" d="M347.978,-236.979C374.65,-225.568 407.759,-207.036 427.212,-180 442.622,-158.583 446.012,-127.234 446.507,-108.026"/>
</g>
<!-- ActiveRecord::Base&#45;&gt;Purchase -->
<g id="edge14" class="edge"><title>ActiveRecord::Base&#45;&gt;Purchase</title>
<path fill="none" stroke="black" d="M296.186,-234.436C286.919,-218.665 273.231,-195.37 264.031,-179.711"/>
</g>
<!-- ActiveRecord::Base&#45;&gt;Supplier -->
<g id="edge16" class="edge"><title>ActiveRecord::Base&#45;&gt;Supplier</title>
<path fill="none" stroke="black" d="M341.968,-236.286C382.854,-218.89 448.934,-190.774 486.241,-174.901"/>
</g>
</g>
</svg>
